<svg width="16" height="16" viewBox="0 0 16 16" fill="none" xmlns="http://www.w3.org/2000/svg">
<path d="M4.99988 5.1133V4.46664C4.99988 2.96664 6.20655 1.4933 7.70655 1.3533C8.12333 1.31236 8.54407 1.35912 8.94169 1.4906C9.33931 1.62207 9.70499 1.83533 10.0152 2.11667C10.3254 2.398 10.5733 2.74117 10.7429 3.12408C10.9125 3.507 11 3.92118 10.9999 4.33997V5.25997M5.99988 14.6666H9.99988C12.6799 14.6666 13.1599 13.5933 13.2999 12.2866L13.7999 8.28664C13.9799 6.65997 13.5132 5.3333 10.6666 5.3333H5.33322C2.48655 5.3333 2.01988 6.65997 2.19988 8.28664L2.69988 12.2866C2.83988 13.5933 3.31988 14.6666 5.99988 14.6666Z" stroke="#6E6658" stroke-width="1.5" stroke-miterlimit="10" stroke-linecap="round" stroke-linejoin="round"/>
<path d="M10.3298 8H10.3364M5.66309 8H5.66842" stroke="#6E6658" stroke-width="2" stroke-linecap="round" stroke-linejoin="round"/>
</svg>
